Coordinates
version=1
nRows=24
nColumns=24
inDegrees=yes

Units are S.I. units (second, meters, Newtons, ...)
If the header above contains a line with 'inDegrees', this indicates whether rotational values are in degrees (yes) or radians (no).

endheader
time	pelvis_tilt	pelvis_list	pelvis_rotation	pelvis_tx	pelvis_ty	pelvis_tz	hip_flexion_r	hip_adduction_r	hip_rotation_r	knee_angle_r	ankle_angle_r	subtalar_angle_r	mtp_angle_r	hip_flexion_l	hip_adduction_l	hip_rotation_l	knee_angle_l	ankle_angle_l	subtalar_angle_l	mtp_angle_l	lumbar_extension	lumbar_bending	lumbar_rotation
      0.00000000	     40.20223890	      1.54050948	     -0.23920305	      0.04298381	      0.54476806	     -0.03208631	     52.41214764	     -4.53774498	      3.33930700	   -110.73758838	     19.13867136	      0.00000000	      0.00000000	     53.02530170	     -4.69142357	     -4.91518416	   -111.68680000	     16.00164266	      0.00000000	      0.00000000	    -52.75959918	     -2.91720267	     -3.28916396
      0.01000000	     40.16808685	      1.54181289	     -0.23845950	      0.04304439	      0.54469344	     -0.03210294	     52.45732078	     -4.54717015	      3.33459135	   -110.74349942	     19.14531575	      0.00000000	      0.00000000	     53.06792785	     -4.67992100	     -4.90932682	   -111.69198012	     16.00977005	      0.00000000	      0.00000000	    -52.85333257	     -2.91453606	     -3.27680470
      0.02000000	     40.09246281	      1.54401104	     -0.21872967	      0.04316286	      0.54458119	     -0.03213702	     52.54571114	     -4.57025479	      3.32341708	   -110.76137487	     19.14861912	      0.00000000	      0.00000000	     53.16117169	     -4.65361604	     -4.89173153	   -111.70773124	     16.01853038	      0.00000000	      0.00000000	    -53.04251191	     -2.90015417	     -3.25474257
      0.03000000	     40.01242048	      1.54488632	     -0.19557508	      0.04330188	      0.54444556	     -0.03218902	     52.63958568	     -4.60346836	      3.30187620	   -110.77797658	     19.14750595	      0.00000000	      0.00000000	     53.26229293	     -4.61905223	     -4.86633557	   -111.72441743	     16.02334321	      0.00000000	      0.00000000	    -53.23152294	     -2.87514691	     -3.23643952
      0.04000000	     39.91723136	      1.54379071	     -0.16277413	      0.04348578	      0.54429690	     -0.03225590	     52.74831976	     -4.64273592	      3.27536888	   -110.79833006	     19.14784706	      0.00000000	      0.00000000	     53.38049843	     -4.57989968	     -4.83634166	   -111.74408157	     16.03142833	      0.00000000	      0.00000000	    -53.44146394	     -2.84288870	     -3.21836211
      0.05000000	     39.82595722	      1.54360628	     -0.13786218	      0.04369964	      0.54417770	     -0.03230533	     52.84940513	     -4.67282251	      3.25228579	   -110.81861030	     19.15573904	      0.00000000	      0.00000000	     53.48648189	     -4.55081158	     -4.81848546	   -111.76381163	     16.04757771	      0.00000000	      0.00000000	    -53.64046550	     -2.82217810	     -3.19802267
      0.06000000	     39.71965985	      1.54306099	     -0.11769125	      0.04396954	      0.54403664	     -0.03237225	     52.96692084	     -4.70534746	      3.23052036	   -110.84317755	     19.16519687	      0.00000000	      0.00000000	     53.60725110	     -4.51890622	     -4.79592564	   -111.78958028	     16.06814826	      0.00000000	      0.00000000	    -53.86616199	     -2.80085856	     -3.17327675
      0.07000000	     39.56889058	      1.53979975	     -0.08410715	      0.04426954	      0.54379753	     -0.03244730	     53.14295516	     -4.74882418	      3.20212282	   -110.87651857	     19.17010085	      0.00000000	      0.00000000	     53.78931456	     -4.47754042	     -4.75775371	   -111.82528566	     16.09303686	      0.00000000	      0.00000000	    -54.16285947	     -2.76421941	     -3.14183509
      0.08000000	     39.42102234	      1.53332331	     -0.05561757	      0.04462277	      0.54358731	     -0.03251579	     53.30663592	     -4.77853601	      3.17722925	   -110.91087898	     19.17266757	      0.00000000	      0.00000000	     53.96267614	     -4.44812079	     -4.72735201	   -111.85952434	     16.11523969	      0.00000000	      0.00000000	    -54.41097920	     -2.73393221	     -3.11420258
      0.09000000	     39.26754624	      1.52803916	     -0.03530184	      0.04500463	      0.54336498	     -0.03256750	     53.48025550	     -4.80094786	      3.15684412	   -110.94831654	     19.18269730	      0.00000000	      0.00000000	     54.13909290	     -4.42668288	     -4.70596980	   -111.89903606	     16.14315263	      0.00000000	      0.00000000	    -54.66810865	     -2.71593370	     -3.08002348
      0.10000000	     39.10265953	      1.52453065	     -0.01807448	      0.04541132	      0.54312509	     -0.03261781	     53.66630235	     -4.81760786	      3.14439678	   -110.99015651	     19.19477183	      0.00000000	      0.00000000	     54.32773847	     -4.40643872	     -4.68719539	   -111.93947678	     16.17277058	      0.00000000	      0.00000000	    -54.93524603	     -2.70538644	     -3.03926798
      0.11000000	     38.92365003	      1.52314743	      0.00030180	      0.04587267	      0.54286617	     -0.03267093	     53.86877333	     -4.83238584	      3.13975668	   -111.03270121	     19.20548103	      0.00000000	      0.00000000	     54.53150511	     -4.38800628	     -4.67201223	   -111.98430375	     16.19958279	      0.00000000	      0.00000000	    -55.19629607	     -2.70032697	     -2.99291506
      0.12000000	     38.73460102	      1.53214687	      0.01706110	      0.04633598	      0.54258561	     -0.03267278	     54.08103727	     -4.84723293	      3.14420794	   -111.08411990	     19.22516336	      0.00000000	      0.00000000	     54.74995842	     -4.37009757	     -4.65927526	   -112.03085048	     16.23180939	      0.00000000	      0.00000000	    -55.49028200	     -2.70344439	     -2.93796966
      0.13000000	     38.54887579	      1.53826632	      0.03653519	      0.04681249	      0.54230394	     -0.03274959	     54.29562029	     -4.85536297	      3.15436714	   -111.13285124	     19.24603880	      0.00000000	      0.00000000	     54.96020027	     -4.34279236	     -4.65768344	   -112.07552230	     16.26033805	      0.00000000	      0.00000000	    -55.77837010	     -2.71166241	     -2.88137238
      0.14000000	     38.33920800	      1.55363631	      0.05556944	      0.04730729	      0.54200941	     -0.03279468	     54.53343685	     -4.86668825	      3.17473456	   -111.18528152	     19.26530926	      0.00000000	      0.00000000	     55.19709392	     -4.31337769	     -4.65760663	   -112.11915768	     16.28644156	      0.00000000	      0.00000000	    -56.08097938	     -2.72391554	     -2.81757355
      0.15000000	     38.13062330	      1.57330212	      0.07655101	      0.04780566	      0.54169685	     -0.03283272	     54.77204078	     -4.87446418	      3.19986166	   -111.23988193	     19.28952115	      0.00000000	      0.00000000	     55.43283613	     -4.28012638	     -4.66150077	   -112.16306463	     16.31581010	      0.00000000	      0.00000000	    -56.40311441	     -2.73807290	     -2.75218740
      0.16000000	     37.90878775	      1.59558301	      0.09586696	      0.04830764	      0.54139665	     -0.03288421	     55.02498678	     -4.88380530	      3.23413419	   -111.29289007	     19.31199083	      0.00000000	      0.00000000	     55.67981192	     -4.24469441	     -4.66760947	   -112.20601400	     16.34401641	      0.00000000	      0.00000000	    -56.73612948	     -2.75351341	     -2.68418430
      0.17000000	     37.67757976	      1.62592560	      0.11278368	      0.04883790	      0.54106330	     -0.03288427	     55.28566395	     -4.88823983	      3.27237214	   -111.34811038	     19.33848106	      0.00000000	      0.00000000	     55.94033527	     -4.20885194	     -4.67254481	   -112.24696258	     16.37877022	      0.00000000	      0.00000000	    -57.10422996	     -2.76770203	     -2.61353672
      0.18000000	     37.43825904	      1.64975255	      0.12895222	      0.04936610	      0.54077279	     -0.03293367	     55.55433181	     -4.88849985	      3.31502056	   -111.39947612	     19.35973713	      0.00000000	      0.00000000	     56.19900813	     -4.17424421	     -4.68576716	   -112.28313170	     16.41099706	      0.00000000	      0.00000000	    -57.46226010	     -2.78203409	     -2.54474731
      0.19000000	     37.19236180	      1.67659062	      0.14005878	      0.04990826	      0.54047203	     -0.03294569	     55.82634265	     -4.87971018	      3.36303811	   -111.44929205	     19.38549926	      0.00000000	      0.00000000	     56.46687258	     -4.14148707	     -4.69402156	   -112.32121181	     16.45220399	      0.00000000	      0.00000000	    -57.85078090	     -2.79361900	     -2.47492480
      0.20000000	     36.93507407	      1.70055687	      0.14477987	      0.05046588	      0.54019529	     -0.03295650	     56.10865079	     -4.86564036	      3.41373654	   -111.49660395	     19.40987265	      0.00000000	      0.00000000	     56.74066351	     -4.11504564	     -4.70290411	   -112.35698445	     16.49747187	      0.00000000	      0.00000000	    -58.25147276	     -2.80363600	     -2.40526665
      0.21000000	     36.67682054	      1.71900634	      0.14698090	      0.05102295	      0.53992640	     -0.03297868	     56.39205368	     -4.84085119	      3.46370039	   -111.54020202	     19.43784726	      0.00000000	      0.00000000	     57.01038040	     -4.08732168	     -4.71130646	   -112.39242146	     16.54958304	      0.00000000	      0.00000000	    -58.66892062	     -2.81013085	     -2.33664195
      0.22000000	     36.40069437	      1.73877992	      0.14193947	      0.05162371	      0.53964662	     -0.03297531	     56.69164644	     -4.81537668	      3.51260160	   -111.58429129	     19.46596562	      0.00000000	      0.00000000	     57.29554416	     -4.06438198	     -4.71690463	   -112.42697263	     16.60858372	      0.00000000	      0.00000000	    -59.11199499	     -2.81367315	     -2.26650763
      0.23000000	     36.11770473	      1.75687179	      0.14476884	      0.05222783	      0.53938250	     -0.03296114	     56.99412591	     -4.78523934	      3.56268450	   -111.62763807	     19.49378923	      0.00000000	      0.00000000	     57.58678036	     -4.04065912	     -4.71988118	   -112.46075197	     16.67229514	      0.00000000	      0.00000000	    -59.56142541	     -2.81388740	     -2.19798493
